<svg width="32" height="32" fill="none" xmlns="http://www.w3.org/2000/svg"><rect width="32" height="32" rx="16" fill="#303041"/><path d="M15.853 16.37c-.281-.343-.656-.572-1.093-.75.052-.04.072-.061.093-.072.875-.448 1.229-1.197 1.27-2.144.042-1.25-.551-2.228-1.655-2.697-.604-.26-1.25-.322-1.895-.333-1.696-.01-3.393 0-5.08 0h-.24v11.254c1.979 0 3.936.01 5.903-.01a3.403 3.403 0 0 0 1.52-.365c1.229-.656 1.801-1.697 1.801-3.071-.01-.666-.187-1.291-.624-1.811Zm-6.007-3.987c.02-.01.02-.02.031-.02 1 .02 1.999-.01 2.988.072.729.063 1.02.458 1.01 1.146 0 .666-.365 1.093-1.062 1.186-.344.052-.698.052-1.052.063-.614.01-1.238 0-1.853 0-.01 0-.03-.01-.062-.021v-2.426Zm4.237 6.049c-.094.687-.479 1.155-1.166 1.207-1.01.084-2.03.073-3.071.094v-3.009c.062-.01.104-.02.156-.02.843 0 1.676-.01 2.52.02.27.01.54.063.801.157.49.177.74.551.77 1.061.01.157.01.323-.01.49ZM24.742 17.87c.01-.719.021-1.417-.166-2.083-.291-1.051-.885-1.884-1.884-2.363-.791-.375-1.645-.468-2.499-.375-1.478.177-2.571.917-3.112 2.332-.396 1.02-.406 2.093-.219 3.165.125.718.396 1.364.937 1.874.927.864 2.04 1.218 3.3 1.166 1.228-.052 2.27-.48 3.03-1.468.26-.344.468-.698.52-1.156-.698 0-1.374 0-2.051.01-.062 0-.125.074-.177.126-.146.156-.26.354-.437.468-.635.427-1.333.406-2.02.136-.75-.292-1.114-1.146-1.03-1.822h5.808v-.01Zm-3.997-3.103c1.03.02 1.738.666 1.79 1.697h-3.601c.104-.958.687-1.718 1.811-1.697ZM22.973 10.864h-4.518v1.093h4.518v-1.093Z" fill="#FAFAFA"/></svg>