<svg width="9" height="18" viewBox="0 0 9 18" fill="none" xmlns="http://www.w3.org/2000/svg">
<path d="M1.22727 4.09091V13.5C1.22727 14.368 1.57208 15.2004 2.18583 15.8142C2.79959 16.4279 3.63202 16.7727 4.5 16.7727C5.36798 16.7727 6.20041 16.4279 6.81417 15.8142C7.42792 15.2004 7.77273 14.368 7.77273 13.5V3.27273C7.77273 2.73024 7.55722 2.20997 7.17363 1.82637C6.79003 1.44278 6.26976 1.22727 5.72727 1.22727C5.18478 1.22727 4.66452 1.44278 4.28092 1.82637C3.89732 2.20997 3.68182 2.73024 3.68182 3.27273V11.8636C3.68182 12.0806 3.76802 12.2887 3.92146 12.4422C4.0749 12.5956 4.283 12.6818 4.5 12.6818C4.717 12.6818 4.9251 12.5956 5.07854 12.4422C5.23198 12.2887 5.31818 12.0806 5.31818 11.8636V4.09091H6.54545V11.8636C6.54545 12.4061 6.32995 12.9264 5.94635 13.31C5.56276 13.6936 5.04249 13.9091 4.5 13.9091C3.95751 13.9091 3.43724 13.6936 3.05365 13.31C2.67005 12.9264 2.45455 12.4061 2.45455 11.8636V3.27273C2.45455 2.40475 2.79935 1.57232 3.41311 0.95856C4.02686 0.344804 4.85929 0 5.72727 0C6.59525 0 7.42769 0.344804 8.04144 0.95856C8.6552 1.57232 9 2.40475 9 3.27273V13.5C9 14.6935 8.52589 15.8381 7.68198 16.682C6.83807 17.5259 5.69347 18 4.5 18C3.30653 18 2.16193 17.5259 1.31802 16.682C0.474106 15.8381 0 14.6935 0 13.5V4.09091H1.22727Z" fill="#2A52FF"/>
</svg>
