<svg width="32" height="32" viewBox="0 0 32 32" fill="none" xmlns="http://www.w3.org/2000/svg">
<g clip-path="url(#clip0_928_27433)">
<path d="M16.0002 1.06531C24.2502 1.06531 30.9252 7.74031 30.9252 15.9778C30.9252 24.2153 24.2502 30.9028 16.0002 30.9028C7.7502 30.9028 1.0752 24.2278 1.0752 15.9903C1.0752 7.75281 7.7502 1.06531 16.0002 1.06531Z" fill="#E74D89"/>
<path d="M16 31.9653C7.175 31.9653 0 24.8028 0 15.9903C0 7.16531 7.175 0.00280762 16 0.00280762C24.825 0.00280762 32 7.16531 32 15.9778C32 24.7903 24.825 31.9653 16 31.9653ZM29.4875 18.1653C29.025 18.0153 25.2625 16.9028 20.975 17.5778C22.7625 22.4778 23.4875 26.4778 23.625 27.3028C26.7 25.2403 28.8875 21.9653 29.4875 18.1653ZM21.3375 28.5653C21.1375 27.3653 20.3375 23.1903 18.425 18.2153C18.4 18.2278 18.3625 18.2403 18.3375 18.2403C10.625 20.9278 7.8625 26.2653 7.6125 26.7653C9.925 28.5653 12.8375 29.6403 16 29.6403C17.8875 29.6528 19.7 29.2653 21.3375 28.5653V28.5653ZM5.85 25.1278C6.1625 24.6028 9.9125 18.4028 16.9625 16.1153C17.1375 16.0528 17.325 16.0028 17.5 15.9528C17.1625 15.1778 16.7875 14.4028 16.3875 13.6403C9.5625 15.6778 2.9375 15.5903 2.3375 15.5778C2.3375 15.7153 2.325 15.8528 2.325 15.9903C2.3375 19.5028 3.6625 22.7028 5.85 25.1278V25.1278ZM2.625 13.2028C3.2375 13.2153 8.8625 13.2403 15.2625 11.5403C13 7.51531 10.55 4.14031 10.2 3.65281C6.3625 5.45281 3.5125 8.97781 2.625 13.2028ZM12.8 2.72781C13.175 3.22781 15.6625 6.60281 17.9 10.7153C22.7625 8.89031 24.8125 6.14031 25.0625 5.79031C22.65 3.65281 19.475 2.35281 16 2.35281C14.9 2.35281 13.825 2.49031 12.8 2.72781V2.72781ZM26.575 7.36531C26.2875 7.75281 24 10.6903 18.95 12.7528C19.2625 13.4028 19.575 14.0653 19.8625 14.7278C19.9625 14.9653 20.0625 15.2028 20.1625 15.4278C24.7125 14.8528 29.225 15.7778 29.675 15.8653C29.6375 12.6528 28.4875 9.69031 26.575 7.36531V7.36531Z" fill="#B2215A"/>
</g>
<defs>
<clipPath id="clip0_928_27433">
<rect width="32" height="32" fill="white" transform="translate(0 0.00280762)"/>
</clipPath>
</defs>
</svg>
