<svg width="237" height="155" fill="none" xmlns="http://www.w3.org/2000/svg"><path d="M220.975 106.54c48.627-.692-23.476 71.163-82.163 41.109C80.124 117.595.756 149.455.756 130.376-9.1 104.708 79.898 60.315 122.044 67.849c30.869 0 50.304 39.383 98.931 38.691Z" fill="#FFFACB"/><path fill-rule="evenodd" clip-rule="evenodd" d="M206.446 65.24c-2.487.75-4.376 1.181-7.093 1.862l-13.037 4.073c-2.258.82-4.446 1.41-6.564 1.772-6.034 1.681-6.643 4.509-11.821-1.584-2.979-3.415-6.718-6.81-9.467-10.157-3.139-3.715-5.569-6.462-8.868-10.477-4.699-5.194-7.646-4.583-5.181-11.868 2.045-5.906 3.951-11.352 5.537-17.398 1.027-4.207 3.201-13.84 5.077-17.538 5.037.777 11.263 3.422 16.549 5.028 5.517 1.676 10.623 2.223 15.679 3.76 9.264 2.563 21.556 7.553 31.001 11.176-.657 3.817-2.234 7.355-3.282 10.803-.977 3.218-1.266 6.645-2.243 9.863a324.825 324.825 0 0 1-6.285 20.686h-.002Zm19.793-1.518c-1.606 5.287-3.832 10.134-5.368 15.19-1.536 5.057-2.843 10.183-4.679 15.4-1.536 5.056-2.773 9.953-4.079 15.079l-3.801 14.161-7.535-3.294-1.001-3.317c-.5-1.658-.701-3.477-1.041-4.835-.701-3.477-3.84-27.026-6.828-27.934-1.757 2.478 6.077 25.446 5.672 35.868l-36.036-11.954c-7.035-1.635-11.422-3.721-18.088-5.746-6.435-1.956-13.31-3.291-19.676-5.477 2.875-6.156 20.855-15.757 21.472-21.092-4.466.651-18.827 14.866-23.511 18.715-2.008 1.65-3.367 1.99-7.964.594l-3.328-2.267c2.93-15.429 9.981-44.42 16.769-57.67 5.426 1.146 9.345 5.6 12.094 8.946 1.97 2.607 2.819 3.117 5.159 5.334 6.467 5.982 14.136 17.099 24.822 27.375 2.499 2.517 6.925.347 13.099-1.794 9.86-3.532 18.472-5.435 28.123-8.277 3.087-1.07 13.057-3.313 15.725-3.005Zm-17.246 62.547c2.796-3.418 10.834-38.135 14.945-49.187 1.836-5.216 4.271-10.753 5.947-16.27-5.027-3.284-1.961-5.114-6.77-11.596l-2.06-3.137s-.16-.3-.09-.53l-2.58-5.554c-3.11-5.464 3.512-10.732 3.078-18.396-10.072-1.554-22.015-7.693-32.288-11.066-5.287-1.606-11.312-2.432-17.128-3.948-6.276-1.656-12.042-4.161-18.248-6.047l-5.895 21.056c-1.019 1.699-.35 1.149-2.008 1.65 0 0-2.258.82-2.787.91-4.885 2.03-16.424 5.303-18.35 9.99-6.876 18.498-10.915 35.098-15.422 54.063-2.663 11.242-2.715 6.456 16.892 12.162 4.826 1.467 9.493 2.634 14.39 3.87 4.826 1.467 9.214 3.553 14.11 4.79 7.425 2.005 52.446 17.441 54.265 17.24h-.001Z" fill="#202020"/><path fill-rule="evenodd" clip-rule="evenodd" d="M207.253 32.844c-1.559-1.478-30.659-9.817-36.705-11.403-1.839-.559-4.207-1.027-5.886-1.286-2.668-.309-2.758-.838-3.846 1.09 1.12 2.098 6.825 2.326 9.883 3.004 4.437 1.097 8.344 2.284 12.711 3.61l18.778 5.957c4.137 1.257 3.768 1.647 5.065-.972Zm-7.182 15.394-36.588-12.623c-2.068-.629-3.837-1.417-5.565-.687.171 3.567 16.449 7.007 22.196 8.752 4.067 1.487 6.915 2.855 10.753 4.272 3.308 1.507 8.475 4.332 9.202.285h.002Zm-4.591 16.686c-.271-1.589.879-1.24-4.478-2.616l-16.799-5.857c-4.986-1.766-15.731-8.545-19.967-7.824-.148 2.967-.329 1.908 3.049 3.186 1.999.858 3.148 1.207 4.917 1.996 13.162 6.259 10.983 4.341 21.736 8.613 2.459.998 8.865 4.702 11.542 2.502ZM28.885 90.523c1.675.505 2.947.795 4.777 1.254l8.78 2.742c1.52.553 2.993.95 4.42 1.193 4.063 1.133 4.473 3.037 7.96-1.066 2.006-2.3 4.524-4.587 6.375-6.84 2.114-2.502 3.75-4.351 5.972-7.055 3.164-3.498 5.149-3.086 3.49-7.992-1.378-3.978-2.662-7.645-3.73-11.717-.691-2.833-2.155-9.32-3.419-11.81-3.391.523-7.584 2.304-11.144 3.386-3.715 1.129-7.153 1.497-10.559 2.532-6.238 1.726-14.516 5.087-20.876 7.526.443 2.57 1.505 4.953 2.21 7.275.658 2.167.852 4.475 1.51 6.642a218.413 218.413 0 0 0 4.233 13.93h.001ZM15.556 89.5c1.082 3.56 2.58 6.824 3.615 10.229 1.035 3.405 1.915 6.857 3.151 10.37 1.035 3.405 1.868 6.703 2.747 10.155l2.56 9.536 5.074-2.218.674-2.234c.337-1.117.472-2.341.701-3.256.472-2.342 2.586-18.2 4.598-18.811 1.183 1.669-4.092 17.135-3.82 24.154l24.267-8.05c4.738-1.101 7.693-2.506 12.181-3.87 4.334-1.317 8.964-2.216 13.25-3.688-1.935-4.145-14.044-10.611-14.46-14.204 3.008.439 12.68 10.012 15.834 12.604 1.352 1.11 2.267 1.34 5.362.399l2.242-1.526C91.559 98.7 86.81 79.177 82.239 70.253c-3.654.772-6.293 3.772-8.144 6.025-1.326 1.756-1.899 2.099-3.474 3.592-4.355 4.028-9.52 11.515-16.716 18.435-1.683 1.695-4.663.234-8.82-1.208-6.64-2.379-12.44-3.66-18.939-5.574-2.079-.72-8.793-2.231-10.59-2.023Zm11.614 42.12c-1.883-2.303-7.295-25.681-10.064-33.124-1.236-3.513-2.876-7.24-4.005-10.956 3.386-2.212 1.32-3.444 4.56-7.81l1.386-2.112s.108-.201.06-.356l1.739-3.74c2.094-3.68-2.365-7.228-2.074-12.389 6.783-1.046 14.826-5.18 21.744-7.452 3.56-1.081 7.618-1.638 11.534-2.659 4.226-1.115 8.11-2.802 12.289-4.072l3.97 14.18c.685 1.144.235.773 1.352 1.11 0 0 1.52.553 1.877.614 3.29 1.367 11.06 3.571 12.357 6.727 4.63 12.457 7.35 23.636 10.385 36.407 1.793 7.571 1.828 4.348-11.375 8.19-3.25.988-6.393 1.774-9.69 2.606-3.25.988-6.206 2.393-9.503 3.226-5 1.35-35.317 11.745-36.543 11.61h.001Z" fill="#202020"/><path fill-rule="evenodd" clip-rule="evenodd" d="M28.348 68.707c1.05-.995 20.647-6.611 24.718-7.68 1.238-.375 2.833-.69 3.963-.865 1.797-.208 1.858-.565 2.59.735-.754 1.412-4.596 1.565-6.655 2.022-2.988.738-5.62 1.538-8.56 2.431L31.76 69.361c-2.786.847-2.537 1.11-3.411-.654Zm4.83 10.366 24.639-8.5c1.393-.423 2.584-.954 3.748-.463-.116 2.403-11.078 4.719-14.947 5.894-2.74 1.002-4.658 1.923-7.242 2.877-2.227 1.015-5.707 2.917-6.197.192Zm3.104 11.237c.183-1.07-.591-.835 3.016-1.761l11.312-3.945c3.359-1.19 10.594-5.754 13.447-5.269.1 1.999.221 1.286-2.053 2.146-1.346.578-2.12.813-3.312 1.344-8.863 4.215-7.396 2.923-14.637 5.8-1.656.672-5.97 3.166-7.773 1.685Z" fill="#202020"/></svg>