<svg width="32" height="32" viewBox="0 0 32 32" fill="none" xmlns="http://www.w3.org/2000/svg">
<path d="M16 0.00286865C7.16337 0.00286865 0 7.16624 0 16.0028C0 24.8394 7.16337 32.0028 16 32.0028C24.8366 32.0028 32 24.8394 32 16.0028C31.9999 7.16624 24.8364 0.00286865 16 0.00286865ZM11.7311 23.7381H8.21819V12.3887H11.7311V23.7381ZM9.95793 10.9024C8.81063 10.9024 7.88055 9.96478 7.88055 8.8083C7.88055 7.65169 8.81076 6.71408 9.95793 6.71408C11.1051 6.71408 12.0352 7.65169 12.0352 8.8083C12.0352 9.96485 11.1052 10.9024 9.95793 10.9024V10.9024ZM24.8959 23.7381H21.4V17.7806C21.4 16.1467 20.7794 15.2346 19.4873 15.2346C18.0812 15.2346 17.3466 16.1845 17.3466 17.7806V23.7381H13.9773V12.3887H17.3466V13.9173C17.3466 13.9173 18.3601 12.0425 20.7666 12.0425C23.1732 12.0425 24.896 13.512 24.896 16.5518L24.8959 23.7381V23.7381Z" fill="url(#paint0_linear_928_27441)"/>
<defs>
<linearGradient id="paint0_linear_928_27441" x1="4.68628" y1="4.68915" x2="27.3137" y2="27.3165" gradientUnits="userSpaceOnUse">
<stop stop-color="#2489BE"/>
<stop offset="1" stop-color="#0575B3"/>
</linearGradient>
</defs>
</svg>
