<svg xmlns="http://www.w3.org/2000/svg" width="156" height="26" fill="none"><g clip-path="url(#a)"><path fill="#303041" d="M55.516 13.129c1.096-.382 2.17-1.385 2.17-3.172 0-2.79-2.454-4.196-6.258-4.196H40.871l-3.33 3.945h14.087c.696 0 1.38.23 1.38.974 0 .773-.663 1.023-1.38 1.023H37.541v9.225h13.992c5.026 0 6.47-1.907 6.47-4.416.01-1.827-1.107-3.002-2.487-3.383Zm-3.951 1.807c1.075 0 1.528.36 1.528 1.023 0 .703-.453 1.064-1.528 1.064h-9.072v-2.087h9.072Zm28.574 3.04c-1.096-1.063-1.686-1.605-2.234-1.996 2.613-.502 4.162-2.45 4.162-4.809 0-4.326-4.573-5.42-8.186-5.42H63.65l-3.214 3.945h13.855c1.686 0 2.719.592 2.719 1.767 0 1.044-1.19 1.696-2.719 1.696H60.436v7.749h4.92v-4.015h7.566l3.55 4.015h6.596l-2.93-2.931Zm9.704-12.215h-4.931v15.157h4.93V5.761Zm19.196 15.408c1.433 0 2.719-.843 2.719-2.85V5.76h-4.499v8.904l-9.757-8.342c-.78-.682-1.38-.813-1.98-.813-1.402 0-2.687.813-2.687 2.83v12.578h4.478v-8.903l9.756 8.34c.759.673 1.359.814 1.97.814Zm26.636-9.726c0-3.373-2.877-5.692-7.808-5.692h-9.998l-3.256 3.945h13.707c1.518 0 2.403.652 2.403 1.726 0 1.044-.885 1.747-2.403 1.747h-13.707v7.749h4.899v-3.875h8.334c4.952 0 7.829-2.238 7.829-5.6Zm7.438 5.58V5.761h-4.931v15.157h14.066l3.192-3.895h-12.327Z"/><path fill="#597EFF" d="M24.645 4.105c-1.485-.01-2.276 0-2.908.05 1.412-1.164 1.075-2.49-.59-3.403-3.055-1.676-6.89-.411-9.324.924L4.943 5.46l.622 2.72 9.313-5.119c1.138-.622 2.245-.773 3.077-.321.738.401.4 1.104-.622 1.666L8.02 9.526l5.469 3.01 3.308-1.826-2.834-1.556 5.089-2.8 5.215.24 4.436-2.439-4.057-.05ZM30.24 9.214c-.084-2.76-2.15-3.463-5.574-1.446l-6.932 4.086-2.16 4.557 9.514-5.611c1.053-.623 1.686-.452 1.717.421.032.854-.569 1.787-1.622 2.41l-9.514 5.61.2 6.324 3.403-2.007-.105-3.162 5.784-3.413c3.445-2.028 5.384-5.039 5.289-7.77ZM13.256 19.954c.78.11 1.528-.29 1.517-1.756-.01-2.279-1.76-4.367-4.456-5.832L2.836 8.301l-2.35 1.937 10 5.43c.484.261.979.713.979 1.325 0 .633-.463.573-.97.302l-9.998-5.43.042 7.527 9.925 5.39c3.561 1.938 4.583.944 4.573-1.114 0-1.475-.801-2.87-1.78-3.714Zm-2.792-.04c.759.412 1.085.884 1.085 1.416 0 .572-.316.692-1.074.28l-6.438-3.492-.01-1.707 6.437 3.503Z"/></g><defs><clipPath id="a"><path fill="#fff" d="M.5 0h155v26H.5z"/></clipPath></defs></svg>